<svg version="1.2" xmlns="http://www.w3.org/2000/svg" viewBox="0 0 700 700" width="700" height="700">
	<title>user-svg</title>

	<g id="Layer">
		<path id="Layer" fill-rule="evenodd" class="s0" d="m350 344.1c63.3 0 114.8-51.5 114.8-114.8 0-63.3-51.5-114.8-114.8-114.8-63.3 0-114.8 51.5-114.8 114.8 0 63.3 51.5 114.8 114.8 114.8zm80.5 15.8h-4.7c-22.3 13-48.2 20.5-75.8 20.5-27.6 0-53.5-7.5-75.8-20.5h-4.7c-86.3 0-156.5 70.2-156.5 156.5v53.3c0 8.7 7.2 15.8 15.9 15.8h442.2c8.7 0 15.8-7.1 15.8-15.8v-53.3c0-86.3-70.1-156.5-156.4-156.5z"/>
	</g>
</svg>